<svg width="71" height="71" viewBox="0 0 71 71" fill="none" xmlns="http://www.w3.org/2000/svg">
<path d="M32.129 45.9747L25.5612 52.5425C24.1766 53.927 21.9755 53.927 20.5555 52.578C20.1649 52.1874 19.7744 51.8324 19.3839 51.4419C15.7272 47.7497 12.4256 43.8801 9.47894 39.8329C6.56781 35.7857 4.2247 31.7385 2.52062 27.7268C0.85204 23.6796 0 19.8099 0 16.1178C0 13.7036 0.42602 11.396 1.27806 9.26593C2.1301 7.10033 3.47916 5.11224 5.36075 3.33716C7.63286 1.10055 10.118 0 12.7451 0C13.7391 0 14.7332 0.21301 15.6207 0.63903C16.5438 1.06505 17.3603 1.70408 17.9993 2.62712L26.2357 14.2362C26.8748 15.1237 27.3363 15.9402 27.6558 16.7213C27.9753 17.4668 28.1528 18.2124 28.1528 18.8869C28.1528 19.7389 27.9043 20.591 27.4073 21.4075C26.9458 22.224 26.2712 23.0761 25.4192 23.9281L22.7211 26.7327C22.3305 27.1233 22.153 27.5848 22.153 28.1528C22.153 28.4368 22.1885 28.6853 22.2595 28.9694C22.366 29.2534 22.4726 29.4664 22.5436 29.6794C23.1826 30.8509 24.2831 32.3775 25.8452 34.2236C27.4428 36.0697 29.1469 37.9513 30.9929 39.8329C31.348 40.1879 31.7385 40.5429 32.0935 40.8979C33.5136 42.2825 33.5491 44.5546 32.129 45.9747Z" fill="white"/>
<path d="M70.895 57.9709C70.895 58.965 70.7175 59.9945 70.3625 60.9886C70.256 61.2726 70.1495 61.5566 70.0075 61.8406C69.4039 63.1187 68.6229 64.3257 67.5934 65.4618C65.8538 67.3789 63.9367 68.7634 61.7711 69.651C61.7356 69.651 61.7001 69.6865 61.6646 69.6865C59.57 70.5385 57.2979 71 54.8483 71C51.2271 71 47.3574 70.148 43.2747 68.4084C39.192 66.6688 35.1093 64.3257 31.0621 61.3791C29.6776 60.3496 28.2931 59.32 26.9795 58.2194L38.5885 46.6104C39.5825 47.3559 40.4701 47.924 41.2156 48.3145C41.3931 48.3855 41.6061 48.492 41.8547 48.5985C42.1387 48.705 42.4227 48.7405 42.7422 48.7405C43.3457 48.7405 43.8072 48.5275 44.1978 48.137L46.8959 45.4744C47.7834 44.5868 48.6355 43.9123 49.452 43.4863C50.2685 42.9892 51.0851 42.7407 51.9726 42.7407C52.6472 42.7407 53.3572 42.8827 54.1382 43.2022C54.9193 43.5218 55.7358 43.9833 56.6233 44.5868L68.3744 52.9297C69.2974 53.5687 69.9365 54.3143 70.327 55.2018C70.682 56.0894 70.895 56.9769 70.895 57.9709Z" fill="white"/>
</svg>
