<svg width="43" height="52" viewBox="0 0 43 52" fill="none" xmlns="http://www.w3.org/2000/svg">
<path d="M30.9686 12.32V11.6C30.9686 6.296 26.6726 2 21.3686 2C16.0646 2 11.7686 6.296 11.7686 11.6V23.6" stroke="#292D32" stroke-width="4" stroke-linecap="round" stroke-linejoin="round"/>
<path d="M14.2646 31.2561C16.0166 33.2001 18.5606 34.4001 21.3686 34.4001C26.6726 34.4001 30.9686 30.1041 30.9686 24.8001V23.6001" stroke="#292D32" stroke-width="4" stroke-linecap="round" stroke-linejoin="round"/>
<path d="M8.83887 37.8799C12.1269 40.9279 16.5189 42.7999 21.3668 42.7999C31.4948 42.7999 39.7268 34.5679 39.7268 24.4399V20.3599" stroke="#292D32" stroke-width="4" stroke-linecap="round" stroke-linejoin="round"/>
<path d="M3.00781 20.3599V24.4399C3.00781 26.9839 3.51181 29.3839 4.44781 31.5919" stroke="#292D32" stroke-width="4" stroke-linecap="round" stroke-linejoin="round"/>
<path d="M40.7361 4.0166L2 42.7766" stroke="#292D32" stroke-width="4" stroke-linecap="round" stroke-linejoin="round"/>
<path d="M18.9688 4.3999V11.5999" stroke="#292D32" stroke-width="4" stroke-linecap="round" stroke-linejoin="round"/>
<path d="M21.3691 42.7998V49.9998" stroke="#292D32" stroke-width="4" stroke-linecap="round" stroke-linejoin="round"/>
</svg>
