<svg width="47" height="61" viewBox="0 0 47 61" fill="none" xmlns="http://www.w3.org/2000/svg">
<path d="M23.5016 41.9643C16.1718 41.9643 10.2129 36.0054 10.2129 28.6756V13.2887C10.2129 5.95893 16.1718 0 23.5016 0C30.8314 0 36.7903 5.95893 36.7903 13.2887V28.6756C36.7903 36.0054 30.8314 41.9643 23.5016 41.9643ZM23.5016 4.19643C18.4938 4.19643 14.4093 8.28096 14.4093 13.2887V28.6756C14.4093 33.6834 18.4938 37.7679 23.5016 37.7679C28.5093 37.7679 32.5939 33.6834 32.5939 28.6756V13.2887C32.5939 8.28096 28.5093 4.19643 23.5016 4.19643Z" fill="#292D32"/>
<path d="M23.5 51.7556C10.547 51.7556 0 41.2085 0 28.2555V23.4996C0 22.3526 0.95119 21.4014 2.09821 21.4014C3.24524 21.4014 4.19643 22.3526 4.19643 23.4996V28.2555C4.19643 38.8865 12.8691 47.5591 23.5 47.5591C34.1309 47.5591 42.8036 38.8865 42.8036 28.2555V23.4996C42.8036 22.3526 43.7548 21.4014 44.9018 21.4014C46.0488 21.4014 47 22.3526 47 23.4996V28.2555C47 41.2085 36.453 51.7556 23.5 51.7556Z" fill="#292D32"/>
<path d="M27.389 16.5892C27.1652 16.5892 26.9134 16.5612 26.6616 16.4773C24.6193 15.722 22.3812 15.722 20.339 16.4773C19.2479 16.869 18.0449 16.3095 17.6532 15.2184C17.2615 14.1273 17.8211 12.9243 18.9122 12.5327C21.8777 11.4696 25.1509 11.4696 28.1164 12.5327C29.2074 12.9243 29.767 14.1273 29.3753 15.2184C29.0396 16.0577 28.2283 16.5892 27.389 16.5892Z" fill="#292D32"/>
<path d="M25.7397 22.5205C25.5439 22.5205 25.376 22.4925 25.1802 22.4365C24.0611 22.1288 22.9141 22.1288 21.795 22.4365C20.676 22.7443 19.529 22.0728 19.2212 20.9538C18.9135 19.8627 19.5849 18.7157 20.704 18.408C22.5224 17.9044 24.4808 17.9044 26.2992 18.408C27.4183 18.7157 28.0897 19.8627 27.7819 20.9818C27.5302 21.905 26.6629 22.5205 25.7397 22.5205Z" fill="#292D32"/>
<path d="M23.5015 60.1489C22.3545 60.1489 21.4033 59.1977 21.4033 58.0506V49.6578C21.4033 48.5108 22.3545 47.5596 23.5015 47.5596C24.6486 47.5596 25.5998 48.5108 25.5998 49.6578V58.0506C25.5998 59.1977 24.6486 60.1489 23.5015 60.1489Z" fill="#292D32"/>
</svg>
