<svg width="41" height="41" viewBox="0 0 41 41" fill="none" xmlns="http://www.w3.org/2000/svg">
<path d="M20.7217 21.9427C20.5922 21.9242 20.4257 21.9242 20.2777 21.9427C17.0217 21.8317 14.4316 19.1677 14.4316 15.8932C14.4316 12.5447 17.1327 9.8252 20.4997 9.8252C23.8482 9.8252 26.5677 12.5447 26.5677 15.8932C26.5492 19.1677 23.9777 21.8317 20.7217 21.9427Z" stroke="#292D32" stroke-width="4" stroke-linecap="round" stroke-linejoin="round"/>
<path d="M32.9683 34.1532C29.6753 37.1687 25.3093 39.0002 20.4993 39.0002C15.6893 39.0002 11.3233 37.1687 8.03027 34.1532C8.21527 32.4142 9.32527 30.7122 11.3048 29.3802C16.3738 26.0132 24.6618 26.0132 29.6938 29.3802C31.6733 30.7122 32.7833 32.4142 32.9683 34.1532Z" stroke="#292D32" stroke-width="4" stroke-linecap="round" stroke-linejoin="round"/>
<path d="M20.5 39C30.7172 39 39 30.7172 39 20.5C39 10.2827 30.7172 2 20.5 2C10.2827 2 2 10.2827 2 20.5C2 30.7172 10.2827 39 20.5 39Z" stroke="#292D32" stroke-width="4" stroke-linecap="round" stroke-linejoin="round"/>
</svg>
