<svg width="29" height="32" viewBox="0 0 29 32" fill="none" xmlns="http://www.w3.org/2000/svg">
<path d="M4.89295 26.9088C3.98577 26.9088 3.13808 26.5963 2.52834 26.0163C1.755 25.2876 1.38321 24.1871 1.51705 22.9973L2.06731 18.1789C2.17141 17.2717 2.72167 16.0671 3.36116 15.4127L15.5709 2.48921C18.6196 -0.737969 21.8022 -0.8272 25.0294 2.22152C28.2566 5.27024 28.3458 8.4528 25.2971 11.68L13.0873 24.6035C12.4627 25.2727 11.3027 25.8973 10.3955 26.0462L5.6068 26.864C5.35398 26.8789 5.1309 26.9088 4.89295 26.9088ZM20.3448 2.20665C19.1996 2.20665 18.2032 2.92049 17.1919 3.99126L4.98218 16.9298C4.68475 17.2421 4.34269 17.9857 4.28321 18.417L3.73295 23.2353C3.67346 23.7261 3.79244 24.1276 4.06013 24.3804C4.32782 24.6332 4.72936 24.7225 5.22013 24.6481L10.0088 23.8303C10.4401 23.756 11.154 23.3691 11.4514 23.0568L23.6612 10.1333C25.5053 8.17024 26.1745 6.35588 23.4827 3.82767C22.293 2.68255 21.2668 2.20665 20.3448 2.20665Z" fill="#292D32"/>
<path d="M22.4421 14.1632C22.4123 14.1632 22.3677 14.1632 22.338 14.1632C17.698 13.7022 13.9651 10.1776 13.2513 5.56737C13.1621 4.95763 13.5785 4.3925 14.1882 4.2884C14.798 4.19917 15.3631 4.61558 15.4672 5.22532C16.0323 8.8243 18.9472 11.5905 22.5759 11.9474C23.1857 12.0069 23.6318 12.5571 23.5723 13.1668C23.498 13.7319 23.0072 14.1632 22.4421 14.1632Z" fill="#292D32"/>
<path d="M27.8846 31.7122H1.11538C0.505641 31.7122 0 31.2066 0 30.5968C0 29.9871 0.505641 29.4814 1.11538 29.4814H27.8846C28.4944 29.4814 29 29.9871 29 30.5968C29 31.2066 28.4944 31.7122 27.8846 31.7122Z" fill="#292D32"/>
</svg>
