<svg width="32" height="32" viewBox="0 0 32 32" fill="none" xmlns="http://www.w3.org/2000/svg">
<path d="M11.0728 25.7288H10.3749C4.79163 25.7288 2 24.333 2 17.3539V10.3749C2 4.79163 4.79163 2 10.3749 2H21.5414C27.1246 2 29.9163 4.79163 29.9163 10.3749V17.3539C29.9163 22.9372 27.1246 25.7288 21.5414 25.7288H20.8435C20.4108 25.7288 19.992 25.9382 19.7268 26.2871L17.6331 29.0788C16.7119 30.3071 15.2044 30.3071 14.2832 29.0788L12.1894 26.2871C11.9661 25.9801 11.4497 25.7288 11.0728 25.7288Z" stroke="#292D32" stroke-width="3" stroke-miterlimit="10" stroke-linecap="round" stroke-linejoin="round"/>
<path d="M21.5371 14.5623H21.5499" stroke="#292D32" stroke-width="3" stroke-linecap="round" stroke-linejoin="round"/>
<path d="M15.9531 14.5623H15.966" stroke="#292D32" stroke-width="3" stroke-linecap="round" stroke-linejoin="round"/>
<path d="M10.3672 14.5623H10.3801" stroke="#292D32" stroke-width="3" stroke-linecap="round" stroke-linejoin="round"/>
</svg>
