<svg width="90" height="90" viewBox="0 0 90 90" fill="none" xmlns="http://www.w3.org/2000/svg">
<path d="M45.5028 48.276C45.2088 48.234 44.8308 48.234 44.4948 48.276C37.1028 48.024 31.2227 41.976 31.2227 34.5419C31.2227 26.9399 37.3548 20.7659 44.9988 20.7659C52.6008 20.7659 58.7748 26.9399 58.7748 34.5419C58.7328 41.976 52.8948 48.024 45.5028 48.276Z" stroke="#292D32" stroke-width="5" stroke-linecap="round" stroke-linejoin="round"/>
<path d="M73.3064 75.9962C65.8304 82.8422 55.9184 87.0002 44.9984 87.0002C34.0784 87.0002 24.1664 82.8422 16.6904 75.9962C17.1104 72.0482 19.6304 68.1842 24.1244 65.1602C35.6324 57.5162 54.4484 57.5162 65.8724 65.1602C70.3664 68.1842 72.8864 72.0482 73.3064 75.9962Z" stroke="#292D32" stroke-width="5" stroke-linecap="round" stroke-linejoin="round"/>
<path d="M45 87C68.1958 87 87 68.1958 87 45C87 21.804 68.1958 3 45 3C21.804 3 3 21.804 3 45C3 68.1958 21.804 87 45 87Z" stroke="#292D32" stroke-width="5" stroke-linecap="round" stroke-linejoin="round"/>
</svg>
