<svg width="35" height="27" viewBox="0 0 35 27" fill="none" xmlns="http://www.w3.org/2000/svg">
<path d="M18.3213 25H8.52542C3.62748 25 2 22.1318 2 19.25V7.74999C2 3.43408 3.62748 2 8.52542 2H18.3213C23.2193 2 24.8467 3.43408 24.8467 7.74999V19.25C24.8467 23.5659 23.2038 25 18.3213 25Z" stroke="#292D32" stroke-width="3" stroke-linecap="round" stroke-linejoin="round"/>
<path d="M29.1556 20.4653L24.8467 17.802V9.18381L29.1556 6.52051C31.2636 5.223 32.9996 6.01517 32.9996 8.29604V18.7034C32.9996 20.9843 31.2636 21.7764 29.1556 20.4653Z" stroke="#292D32" stroke-width="3" stroke-linecap="round" stroke-linejoin="round"/>
<path d="M16.7244 12.1342C18.0084 12.1342 19.0494 11.217 19.0494 10.0856C19.0494 8.95409 18.0084 8.03687 16.7244 8.03687C15.4404 8.03687 14.3994 8.95409 14.3994 10.0856C14.3994 11.217 15.4404 12.1342 16.7244 12.1342Z" stroke="#292D32" stroke-width="3" stroke-linecap="round" stroke-linejoin="round"/>
</svg>
